# xmcd CD database file
#
# Track frame offsets:
#	150
#	18402
#	33684
#	53200
#	72553
#	91593
#	111881
#	127541
#	148477
#	173081
#	192724
#	216770
#	234979
#	255788
#	276307
#	296740
#	317808
#	338069
#
# Disc length: 4784 seconds
#
# Revision: 1
# Processed by: cddbd v1.5.2PL0 Copyright (c) Steve Scherf et al.
# Submitted via: CDex 1.79
#
DISCID=0f12ae12
DTITLE=Various Artist - Salsa Primicias CD 1
DYEAR=2008
DGENRE=Salsa
TTITLE0=Agua Bendida - Victor Manuelle
TTITLE1=La Gozadera - Marc Anthony Ft. Gente De Zona
TTITLE2=Con La Misma Moneda - Rumbavana
TTITLE3=A Punto De Serte Infiel - Rommy Marcovich
TTITLE4=Hoy Tengo Ganas De Ti - N Samble
TTITLE5=Bajo La Tormenta - Salsa Giants
TTITLE6=Hasta Que Me Olvides - Lenny Fierro
TTITLE7=Perdoname - Son Latino
TTITLE8=He Renunciado A Ti.Lo Pasado pasado - Michel Robles
TTITLE9=Hoy La Vi Pasar - David Pabon
TTITLE10=Dejala - Son Tentacion
TTITLE11=Me Voy Acostumbrar - La India
TTITLE12=Cambio De Piel - Marc Anthony
TTITLE13=Bailando - Gente De Zona Ft. Isaac Delgado
TTITLE14=No Es Cierto - N Samble
TTITLE15=Ya Te Olvide - Vernis Hernandez
TTITLE16=Ras Tas Tas - Cali Flow Latino
TTITLE17=Si Me Tenias - Tito Nieves
EXTD=YEAR: 2008
EXTT0=
EXTT1=
EXTT2=
EXTT3=
EXTT4=
EXTT5=
EXTT6=
EXTT7=
EXTT8=
EXTT9=
EXTT10=
EXTT11=
EXTT12=
EXTT13=
EXTT14=
EXTT15=
EXTT16=
EXTT17=
PLAYORDER=
